<?xml version="1.0" encoding="utf-8"?>
<!-- Generator: Adobe Illustrator 24.0.0, SVG Export Plug-In . SVG Version: 6.00 Build 0)  -->
<svg version="1.1" id="Layer_1" xmlns="http://www.w3.org/2000/svg" xmlns:xlink="http://www.w3.org/1999/xlink" x="0px" y="0px"
	 viewBox="0 0 463 429" style="enable-background:new 0 0 463 429;" xml:space="preserve">
<style type="text/css">
	.st0{fill:#2D769A;}
	.st1{fill:url(#SVGID_1_);}
	.st2{enable-background:new    ;}
	.st3{clip-path:url(#SVGID_3_);enable-background:new    ;}
	.st4{fill:#00748F;}
	.st5{fill:#007894;}
	.st6{fill:#007C99;}
	.st7{clip-path:url(#SVGID_5_);enable-background:new    ;}
	.st8{fill:#006C85;}
	.st9{fill:#00708A;}
	.st10{clip-path:url(#SVGID_7_);enable-background:new    ;}
	.st11{fill:#0084A3;}
	.st12{fill:#0089A8;}
	.st13{fill:#008DAD;}
	.st14{fill:#006981;}
	.st15{fill:#00A3C9;}
	.st16{clip-path:url(#SVGID_9_);enable-background:new    ;}
	.st17{clip-path:url(#SVGID_11_);enable-background:new    ;}
	.st18{clip-path:url(#SVGID_13_);enable-background:new    ;}
	.st19{fill:#0091B3;}
	.st20{fill:#0095B8;}
	.st21{clip-path:url(#SVGID_15_);enable-background:new    ;}
	.st22{clip-path:url(#SVGID_17_);enable-background:new    ;}
	.st23{clip-path:url(#SVGID_19_);enable-background:new    ;}
	.st24{clip-path:url(#SVGID_21_);enable-background:new    ;}
	.st25{fill:#00809E;}
	.st26{clip-path:url(#SVGID_23_);enable-background:new    ;}
	.st27{clip-path:url(#SVGID_25_);enable-background:new    ;}
	.st28{clip-path:url(#SVGID_27_);enable-background:new    ;}
	.st29{clip-path:url(#SVGID_29_);enable-background:new    ;}
	.st30{fill:#00ADD5;}
</style>
<circle class="st0" cx="245" cy="222" r="202"/>
<linearGradient id="SVGID_1_" gradientUnits="userSpaceOnUse" x1="246.967" y1="9.26" x2="243.0459" y2="403.4512">
	<stop  offset="0" style="stop-color:#F9B9BB"/>
	<stop  offset="1" style="stop-color:#FABBA8"/>
</linearGradient>
<circle class="st1" cx="245" cy="207" r="202"/>
<g>
	<g>
		<g class="st2">
			<g class="st2">
				<defs>
					<path id="SVGID_2_" class="st2" d="M255.61,92.2l2.28,5.42c-9.94,2.55-48.49,7.99-76.56,18.04l-2.28-5.42
						C207.12,100.19,245.68,94.74,255.61,92.2z"/>
				</defs>
				<clipPath id="SVGID_3_">
					<use xlink:href="#SVGID_2_"  style="overflow:visible;"/>
				</clipPath>
				<g class="st3">
					<path class="st4" d="M255.61,92.2l2.28,5.42c-7.79,2-33.14,5.77-57.26,12.15l-2.28-5.42C222.47,97.97,247.83,94.19,255.61,92.2
						"/>
					<path class="st5" d="M198.36,104.34l2.28,5.42c-6.01,1.59-11.94,3.34-17.51,5.26l-2.28-5.42
						C186.41,107.68,192.35,105.93,198.36,104.34"/>
					<path class="st6" d="M180.85,109.61l2.28,5.42c-0.6,0.21-1.21,0.42-1.8,0.63l-2.28-5.42
						C179.64,110.03,180.25,109.82,180.85,109.61"/>
				</g>
			</g>
			<g class="st2">
				<defs>
					<path id="SVGID_4_" class="st2" d="M257.67,91.54l2.28,5.42c-0.02-0.04-0.74,0.2-2.06,0.66l-2.28-5.42
						C256.93,91.74,257.65,91.5,257.67,91.54z"/>
				</defs>
				<clipPath id="SVGID_5_">
					<use xlink:href="#SVGID_4_"  style="overflow:visible;"/>
				</clipPath>
				<g class="st7">
					<path class="st8" d="M257.67,91.54l2.28,5.42c0,0-0.01,0-0.02,0l-2.28-5.42C257.66,91.54,257.67,91.54,257.67,91.54"/>
					<path class="st9" d="M257.65,91.54l2.28,5.42c-0.01,0-0.02,0-0.03,0l-2.28-5.42C257.63,91.54,257.64,91.54,257.65,91.54"/>
					<path class="st4" d="M257.62,91.54l2.28,5.42c-0.02,0-0.06,0.01-0.1,0.02l-2.28-5.42C257.57,91.55,257.6,91.54,257.62,91.54"/>
					<path class="st5" d="M257.53,91.56l2.28,5.42c-0.27,0.07-0.91,0.29-1.88,0.62l-2.28-5.42
						C256.62,91.85,257.26,91.63,257.53,91.56"/>
					<path class="st6" d="M255.65,92.18l2.28,5.42c-0.01,0-0.02,0.01-0.04,0.01l-2.28-5.42C255.62,92.19,255.64,92.19,255.65,92.18"
						/>
				</g>
			</g>
			<g class="st2">
				<defs>
					<path id="SVGID_6_" class="st2" d="M146.33,162.71l2.28,5.42c-32.67,18.43-51.87,34.96-61.6,41.89l-2.28-5.42
						C94.46,197.67,113.67,181.14,146.33,162.71z"/>
				</defs>
				<clipPath id="SVGID_7_">
					<use xlink:href="#SVGID_6_"  style="overflow:visible;"/>
				</clipPath>
				<g class="st10">
					<path class="st11" d="M146.33,162.71l2.28,5.42c-3.87,2.18-7.55,4.34-11.04,6.45l-2.28-5.42
						C138.79,167.05,142.47,164.89,146.33,162.71"/>
					<path class="st12" d="M135.29,169.16l2.28,5.42c-10.31,6.24-19.03,12.13-26.34,17.35l-2.28-5.42
						C116.26,181.29,124.98,175.4,135.29,169.16"/>
					<path class="st13" d="M108.95,186.52l2.28,5.42c-11.06,7.9-18.89,14.28-24.07,17.98l-2.28-5.42
						C90.06,200.79,97.88,194.42,108.95,186.52"/>
					<path class="st12" d="M84.87,204.5l2.28,5.42c-0.05,0.03-0.09,0.07-0.14,0.1l-2.28-5.42C84.78,204.56,84.83,204.53,84.87,204.5
						"/>
				</g>
			</g>
			<g>
				<polygon class="st14" points="309,128.4 311.29,133.83 267.98,121.24 265.7,115.81 				"/>
			</g>
			<g>
				<polygon class="st15" points="265.7,115.81 267.98,121.24 239.62,166.72 237.34,161.3 				"/>
			</g>
			<g class="st2">
				<defs>
					<path id="SVGID_8_" class="st2" d="M424.77,100.72l2.28,5.42c-14.21-4.13-32.19-4.98-44.18-5.01l-2.28-5.42
						C392.59,95.74,410.56,96.59,424.77,100.72z"/>
				</defs>
				<clipPath id="SVGID_9_">
					<use xlink:href="#SVGID_8_"  style="overflow:visible;"/>
				</clipPath>
				<g class="st16">
					<path class="st8" d="M424.77,100.72l2.28,5.42c-14.21-4.13-32.19-4.98-44.18-5.01l-2.28-5.42
						C392.59,95.74,410.56,96.59,424.77,100.72"/>
				</g>
			</g>
			<g class="st2">
				<defs>
					<path id="SVGID_10_" class="st2" d="M328.96,142.22l2.28,5.42c-2.57-6.11-9.53-10.79-19.95-13.82L309,128.4
						C319.42,131.43,326.38,136.11,328.96,142.22z"/>
				</defs>
				<clipPath id="SVGID_11_">
					<use xlink:href="#SVGID_10_"  style="overflow:visible;"/>
				</clipPath>
				<g class="st17">
					<path class="st8" d="M328.96,142.22l2.28,5.42c-2.57-6.11-9.53-10.79-19.95-13.82L309,128.4
						C319.42,131.43,326.38,136.11,328.96,142.22"/>
				</g>
			</g>
			<g class="st2">
				<defs>
					<path id="SVGID_12_" class="st2" d="M29.73,282.98l-2.28-5.42c-5.27-12.52,6.78-34.58,57.29-72.96l2.28,5.42
						C36.51,248.41,24.46,270.47,29.73,282.98z"/>
				</defs>
				<clipPath id="SVGID_13_">
					<use xlink:href="#SVGID_12_"  style="overflow:visible;"/>
				</clipPath>
				<g class="st18">
					<path class="st13" d="M84.74,204.6l2.28,5.42c-7.75,5.89-14.59,11.39-20.61,16.54l-2.28-5.42
						C70.14,215.99,76.99,210.48,84.74,204.6"/>
					<path class="st19" d="M64.13,221.13l2.28,5.42c-8,6.84-14.53,13.05-19.78,18.67l-2.28-5.42
						C49.6,234.18,56.13,227.97,64.13,221.13"/>
					<path class="st20" d="M44.35,239.81l2.28,5.42c-11.29,12.11-16.63,21.54-17.79,28.87l-2.28-5.42
						C27.72,261.35,33.06,251.92,44.35,239.81"/>
					<path class="st19" d="M26.56,268.67l2.28,5.42c-0.17,1.1-0.26,2.15-0.25,3.16l-2.28-5.42
						C26.3,270.82,26.38,269.77,26.56,268.67"/>
					<path class="st13" d="M26.31,271.83l2.28,5.42c0.01,0.79,0.06,1.54,0.17,2.28l-2.28-5.42
						C26.37,273.37,26.31,272.61,26.31,271.83"/>
					<path class="st12" d="M26.48,274.1l2.28,5.42c0.1,0.65,0.23,1.28,0.41,1.89l-2.28-5.42C26.72,275.38,26.58,274.75,26.48,274.1"
						/>
					<path class="st11" d="M26.89,275.99l2.28,5.42c0.16,0.54,0.34,1.06,0.55,1.57l-2.28-5.42
						C27.23,277.05,27.05,276.53,26.89,275.99"/>
				</g>
			</g>
			<g class="st2">
				<defs>
					<path id="SVGID_14_" class="st2" d="M445.75,115.05l2.28,5.42c-2.92-6.94-11.03-11.44-20.97-14.33l-2.28-5.42
						C434.72,103.61,442.82,108.11,445.75,115.05z"/>
				</defs>
				<clipPath id="SVGID_15_">
					<use xlink:href="#SVGID_14_"  style="overflow:visible;"/>
				</clipPath>
				<g class="st21">
					<path class="st8" d="M445.75,115.05l2.28,5.42c-2.92-6.94-11.03-11.44-20.97-14.33l-2.28-5.42
						C434.72,103.61,442.82,108.11,445.75,115.05"/>
				</g>
			</g>
			<g class="st2">
				<defs>
					<path id="SVGID_16_" class="st2" d="M455,102.57l2.28,5.42c4.04,9.6-0.21,17.96-0.59,18.73l-2.28-5.42
						C454.79,120.54,459.04,112.17,455,102.57z"/>
				</defs>
				<clipPath id="SVGID_17_">
					<use xlink:href="#SVGID_16_"  style="overflow:visible;"/>
				</clipPath>
				<g class="st22">
					<path class="st11" d="M455,102.57l2.28,5.42c0.35,0.84,0.64,1.66,0.88,2.47l-2.28-5.42C455.64,104.23,455.35,103.41,455,102.57
						"/>
					<path class="st12" d="M455.87,105.05l2.28,5.42c0.27,0.93,0.46,1.84,0.6,2.72l-2.28-5.42
						C456.33,106.89,456.14,105.98,455.87,105.05"/>
					<path class="st13" d="M456.47,107.77l2.28,5.42c0.17,1.08,0.24,2.12,0.26,3.11l-2.28-5.42
						C456.71,109.89,456.64,108.85,456.47,107.77"/>
					<path class="st19" d="M456.73,110.88l2.28,5.42c0.02,1.35-0.09,2.62-0.27,3.77l-2.28-5.42
						C456.64,113.5,456.74,112.23,456.73,110.88"/>
					<path class="st20" d="M456.46,114.65l2.28,5.42c-0.57,3.72-1.85,6.25-2.06,6.65l-2.28-5.42
						C454.61,120.9,455.89,118.36,456.46,114.65"/>
				</g>
			</g>
			<g>
				<polygon class="st14" points="249.33,220.97 251.61,226.4 209.96,214.29 207.68,208.87 				"/>
			</g>
			<g>
				<polygon class="st14" points="87.06,292.99 89.34,298.42 70.75,293.01 68.47,287.59 				"/>
			</g>
			<g>
				<polygon class="st15" points="207.68,208.87 209.96,214.29 176.71,267.62 174.42,262.2 				"/>
			</g>
			<g class="st2">
				<defs>
					<path id="SVGID_18_" class="st2" d="M413.16,127.05l2.28,5.42c5.35,12.7,4.13,26.48-2.31,40.01l-2.28-5.42
						C417.28,153.52,418.51,139.75,413.16,127.05z"/>
				</defs>
				<clipPath id="SVGID_19_">
					<use xlink:href="#SVGID_18_"  style="overflow:visible;"/>
				</clipPath>
				<g class="st23">
					<path class="st11" d="M413.16,127.05l2.28,5.42c0.67,1.58,1.23,3.18,1.69,4.79l-2.28-5.42
						C414.39,130.22,413.82,128.63,413.16,127.05"/>
					<path class="st12" d="M414.85,131.83l2.28,5.42c0.51,1.76,0.9,3.54,1.17,5.33l-2.28-5.42
						C415.75,135.37,415.36,133.59,414.85,131.83"/>
					<path class="st13" d="M416.02,137.16l2.28,5.42c0.3,1.98,0.47,3.98,0.49,6l-2.28-5.42
						C416.49,141.14,416.33,139.14,416.02,137.16"/>
					<path class="st19" d="M416.52,143.16l2.28,5.42c0.03,2.54-0.15,5.1-0.54,7.67l-2.28-5.42
						C416.37,148.25,416.55,145.7,416.52,143.16"/>
					<path class="st20" d="M415.98,150.82l2.28,5.42c-0.82,5.39-2.56,10.83-5.13,16.24l-2.28-5.42
						C413.42,161.66,415.16,156.22,415.98,150.82"/>
				</g>
			</g>
			<g class="st2">
				<defs>
					<path id="SVGID_20_" class="st2" d="M408.64,171.28l2.28,5.42c-0.64,1.15-1.23,2.3-1.94,3.44
						c-16.06,25.76-42.57,39.79-69.05,41.51l-2.28-5.42c26.47-1.72,52.98-15.75,69.05-41.51C407.41,173.58,408,172.43,408.64,171.28
						z"/>
				</defs>
				<clipPath id="SVGID_21_">
					<use xlink:href="#SVGID_20_"  style="overflow:visible;"/>
				</clipPath>
				<g class="st24">
					<path class="st20" d="M408.64,171.28l2.28,5.42c-0.64,1.15-1.23,2.3-1.94,3.44c-3.12,5.01-6.64,9.58-10.48,13.69l-2.28-5.42
						c3.84-4.12,7.36-8.68,10.48-13.69C407.41,173.58,408,172.43,408.64,171.28"/>
					<path class="st19" d="M396.22,188.42l2.28,5.42c-2.28,2.45-4.67,4.73-7.15,6.86l-2.28-5.42
						C391.55,193.15,393.94,190.87,396.22,188.42"/>
					<path class="st13" d="M389.06,195.28l2.28,5.42c-1.96,1.68-3.99,3.26-6.06,4.74l-2.28-5.42
						C385.08,198.54,387.1,196.96,389.06,195.28"/>
					<path class="st12" d="M383,200.03l2.28,5.42c-1.82,1.3-3.69,2.53-5.58,3.68l-2.28-5.42C379.32,202.55,381.18,201.33,383,200.03
						"/>
					<path class="st11" d="M377.42,203.7l2.28,5.42c-1.8,1.09-3.62,2.1-5.48,3.05l-2.28-5.42
						C373.8,205.81,375.63,204.79,377.42,203.7"/>
					<path class="st25" d="M371.95,206.75l2.28,5.42c-1.82,0.93-3.67,1.8-5.54,2.6l-2.28-5.42
						C368.28,208.55,370.12,207.69,371.95,206.75"/>
					<path class="st6" d="M366.41,209.35l2.28,5.42c-1.91,0.82-3.85,1.56-5.8,2.24l-2.28-5.42
						C362.56,210.91,364.5,210.17,366.41,209.35"/>
					<path class="st5" d="M360.61,211.59l2.28,5.42c-2.09,0.72-4.2,1.37-6.32,1.93l-2.28-5.42
						C356.41,212.96,358.52,212.31,360.61,211.59"/>
					<path class="st4" d="M354.29,213.52l2.28,5.42c-2.41,0.64-4.84,1.17-7.28,1.6l-2.28-5.42
						C349.44,214.69,351.88,214.16,354.29,213.52"/>
					<path class="st9" d="M347,215.12l2.28,5.42c-3.06,0.54-6.14,0.91-9.22,1.11l-2.28-5.42C340.86,216.03,343.94,215.65,347,215.12
						"/>
					<path class="st8" d="M337.78,216.23l2.28,5.42c-0.04,0-0.09,0.01-0.13,0.01l-2.28-5.42
						C337.69,216.24,337.74,216.23,337.78,216.23"/>
				</g>
			</g>
			<g class="st2">
				<defs>
					<path id="SVGID_22_" class="st2" d="M454.4,121.3l2.28,5.42c-8.63,29.28-44.08,51.92-45.95,53.11l-2.28-5.42
						C410.32,173.22,445.77,150.58,454.4,121.3z"/>
				</defs>
				<clipPath id="SVGID_23_">
					<use xlink:href="#SVGID_22_"  style="overflow:visible;"/>
				</clipPath>
				<g class="st26">
					<path class="st20" d="M454.4,121.3l2.28,5.42c-3.37,11.43-10.82,21.84-18.76,30.36l-2.28-5.42
						C443.58,143.14,451.03,132.73,454.4,121.3"/>
					<path class="st19" d="M435.64,151.66l2.28,5.42c-3.85,4.13-7.81,7.81-11.48,10.95l-2.28-5.42
						C427.83,159.47,431.79,155.79,435.64,151.66"/>
					<path class="st13" d="M424.16,162.61l2.28,5.42c-4.22,3.61-8.05,6.5-10.88,8.52l-2.28-5.42
						C416.11,169.11,419.94,166.22,424.16,162.61"/>
					<path class="st12" d="M413.28,171.13l2.28,5.42c-2.66,1.9-4.44,3.04-4.82,3.28l-2.28-5.42
						C408.83,174.17,410.61,173.03,413.28,171.13"/>
				</g>
			</g>
			<g class="st2">
				<defs>
					<path id="SVGID_24_" class="st2" d="M9.1,286.25l-2.28-5.42c3.65,8.66,12.69,14.1,24.05,17.4c28.61,8.32,71.91,3.12,80.82,1.92
						l2.28,5.42c-8.91,1.2-52.21,6.4-80.82-1.92C21.79,300.35,12.75,294.92,9.1,286.25z"/>
				</defs>
				<clipPath id="SVGID_25_">
					<use xlink:href="#SVGID_24_"  style="overflow:visible;"/>
				</clipPath>
				<g class="st27">
					<path class="st9" d="M111.68,300.15l2.28,5.42c-3.19,0.43-10.8,1.37-20.56,2.02l-2.28-5.42
						C100.89,301.52,108.49,300.58,111.68,300.15"/>
					<path class="st8" d="M91.13,302.17l2.28,5.42c-17.49,1.17-41.9,1.39-60.26-3.94c-11.36-3.3-20.4-8.74-24.05-17.4l-2.28-5.42
						c3.65,8.66,12.69,14.1,24.05,17.4C49.23,303.57,73.64,303.34,91.13,302.17"/>
				</g>
			</g>
			<g class="st2">
				<defs>
					<path id="SVGID_26_" class="st2" d="M272.06,236.57l2.28,5.42c-2.71-6.45-9.93-11.87-22.74-15.6l-2.28-5.42
						C262.14,224.7,269.35,230.12,272.06,236.57z"/>
				</defs>
				<clipPath id="SVGID_27_">
					<use xlink:href="#SVGID_26_"  style="overflow:visible;"/>
				</clipPath>
				<g class="st28">
					<path class="st8" d="M272.06,236.57l2.28,5.42c-2.71-6.45-9.93-11.87-22.74-15.6l-2.28-5.42
						C262.14,224.7,269.35,230.12,272.06,236.57"/>
				</g>
			</g>
			<g>
				<polygon class="st14" points="202.85,326.65 205.13,332.07 113.97,305.57 111.68,300.15 				"/>
			</g>
			<g class="st2">
				<defs>
					<path id="SVGID_28_" class="st2" d="M353.86,236.67l2.28,5.42c5.25,12.47,5.22,28.43-6.34,46.96
						c-24.71,39.63-77.73,62.48-144.68,43.02l-2.28-5.42c66.94,19.46,119.97-3.39,144.68-43.02
						C359.08,265.1,359.12,249.14,353.86,236.67z"/>
				</defs>
				<clipPath id="SVGID_29_">
					<use xlink:href="#SVGID_28_"  style="overflow:visible;"/>
				</clipPath>
				<g class="st29">
					<path class="st11" d="M353.86,236.67l2.28,5.42c0.65,1.55,1.22,3.15,1.7,4.8l-2.28-5.42
						C355.09,239.82,354.52,238.22,353.86,236.67"/>
					<path class="st12" d="M355.56,241.47l2.28,5.42c0.5,1.72,0.89,3.49,1.17,5.31l-2.28-5.42
						C356.45,244.96,356.06,243.19,355.56,241.47"/>
					<path class="st13" d="M356.73,246.78l2.28,5.42c0.3,1.93,0.47,3.92,0.49,5.96l-2.28-5.42
						C357.2,250.7,357.03,248.71,356.73,246.78"/>
					<path class="st19" d="M357.23,252.75l2.28,5.42c0.03,2.43-0.14,4.94-0.53,7.53l-2.28-5.42
						C357.09,257.68,357.26,255.17,357.23,252.75"/>
					<path class="st20" d="M356.69,260.27l2.28,5.42c-1.1,7.21-3.97,15.02-9.17,23.36c-3.36,5.38-7.24,10.46-11.6,15.16l-2.28-5.42
						c4.37-4.7,8.24-9.77,11.6-15.16C352.73,275.3,355.59,267.48,356.69,260.27"/>
					<path class="st19" d="M335.93,298.79l2.28,5.42c-2.6,2.8-5.38,5.48-8.33,8l-2.28-5.42
						C330.54,304.27,333.32,301.59,335.93,298.79"/>
					<path class="st13" d="M327.6,306.79l2.28,5.42c-2.29,1.97-4.68,3.84-7.17,5.62l-2.28-5.42
						C322.92,310.63,325.31,308.76,327.6,306.79"/>
					<path class="st12" d="M320.43,312.41l2.28,5.42c-2.19,1.57-4.46,3.06-6.8,4.48l-2.28-5.42
						C315.97,315.48,318.23,313.98,320.43,312.41"/>
					<path class="st11" d="M313.63,316.89l2.28,5.42c-2.19,1.33-4.44,2.58-6.76,3.77l-2.28-5.42
						C309.18,319.48,311.44,318.22,313.63,316.89"/>
					<path class="st25" d="M306.87,320.66l2.28,5.42c-2.28,1.17-4.61,2.26-7,3.28l-2.28-5.42
						C302.26,322.93,304.59,321.83,306.87,320.66"/>
					<path class="st6" d="M299.86,323.95l2.28,5.42c-2.46,1.05-4.97,2.02-7.55,2.91l-2.28-5.42
						C294.89,325.97,297.41,325,299.86,323.95"/>
					<path class="st5" d="M292.32,326.86l2.28,5.42c-2.76,0.96-5.59,1.82-8.49,2.59l-2.28-5.42
						C286.72,328.68,289.55,327.82,292.32,326.86"/>
					<path class="st4" d="M283.83,329.45l2.28,5.42c-3.38,0.89-6.85,1.66-10.41,2.28l-2.28-5.42
						C276.98,331.1,280.45,330.34,283.83,329.45"/>
					<path class="st9" d="M273.42,331.72l2.28,5.42c-4.55,0.8-9.25,1.36-14.07,1.68l-2.28-5.42
						C264.18,333.08,268.87,332.52,273.42,331.72"/>
					<path class="st8" d="M259.36,333.4l2.28,5.42c-17.3,1.15-36.27-0.87-56.51-6.75l-2.28-5.42
						C223.09,332.53,242.06,334.55,259.36,333.4"/>
				</g>
			</g>
			<g>
				<path class="st30" d="M337.65,216.24c16.11,12.27,29.35,36.17,9.88,67.39c-24.71,39.63-77.73,62.48-144.68,43.02l-91.16-26.5
					c-8.91,1.2-52.21,6.4-80.82-1.92c-21.94-6.38-35.23-20.71-17.73-50.87c43.06-74.19,160.65-123.82,224.29-148.67
					c5.67-2.21,11.45-4.24,17.27-6.17c2.16-0.7,2.57-0.84,2.97-0.97c0.08-0.08-0.65,0.16-2.05,0.65
					c-9.94,2.55-48.49,7.99-76.56,18.04l40.08-64.28l105.04,30.53c37.05-4.94,72.14-3.88,98.12,3.67
					c46.19,13.43,32.82,39.75,32.12,41.13c-8.63,29.28-44.08,51.92-45.95,53.11l0.18-3.13c-0.64,1.15-1.23,2.3-1.94,3.44
					C390.63,200.49,364.12,214.52,337.65,216.24z M44.57,289.71c13.11,3.81,30.52,3.87,42.49,3.29l-18.59-5.4l77.86-124.88
					c-32.67,18.43-51.87,34.96-61.6,41.89C10.07,261.34,19.45,282.4,44.57,289.71 M424.77,100.72c-14.21-4.13-32.19-4.98-44.18-5.01
					c35.74,18.45,42.62,45.34,30.26,71.35C463.3,125.61,449.93,108.03,424.77,100.72 M214.62,273.88
					c25.85,7.52,43.13,0.6,53.93-16.72c9.46-15.17,5.78-28.92-19.22-36.19l-41.65-12.11l-33.25,53.33L214.62,273.88 M265.7,115.81
					l-28.36,45.48l43.9,12.76c21.63,6.29,36.65-1.19,44.82-14.3c9.33-14.97,1.81-25.87-17.06-31.35L265.7,115.81"/>
			</g>
		</g>
	</g>
</g>
</svg>
